<svg width="18" height="18" viewBox="0 0 18 18" fill="none" xmlns="http://www.w3.org/2000/svg">
<path fill-rule="evenodd" clip-rule="evenodd" d="M14.2391 0.369507H15C16.5188 0.369507 17.75 1.60072 17.75 3.11951V5.11951C17.75 5.92366 17.2076 6.60113 16.4687 6.80604C16.6128 8.63263 16.5293 13.4603 16.2195 15.2683C16.0345 16.348 15.1576 17.1751 14.069 17.2968L13.1545 17.399C10.3934 17.7076 7.60656 17.7076 4.84548 17.399L3.93101 17.2968C2.84239 17.1751 1.96552 16.348 1.78052 15.2683C1.47069 13.4603 1.38724 8.63263 1.53131 6.80604C0.792399 6.60114 0.25 5.92366 0.25 5.11951V3.11951C0.25 1.60072 1.48122 0.369507 3 0.369507H3.76091H6.5H11.5H14.2391ZM1.75 3.11951C1.75 2.42915 2.30964 1.86951 3 1.86951H8.25H9.75H15C15.6904 1.86951 16.25 2.42915 16.25 3.11951V5.11951C16.25 5.25758 16.1381 5.36951 16 5.36951H9.75H8.25H2C1.86193 5.36951 1.75 5.25758 1.75 5.11951V3.11951ZM9.75 6.86951H14.969C15.1093 8.59011 15.0329 13.3116 14.741 15.015C14.6689 15.436 14.3269 15.7586 13.9024 15.806L12.9879 15.9082C11.9116 16.0285 10.8312 16.1 9.75 16.1226V6.86951ZM8.25 6.86951V16.1226C7.16882 16.1 6.08842 16.0285 5.01209 15.9082L4.09762 15.806C3.67308 15.7586 3.33112 15.436 3.25897 15.015C2.96708 13.3116 2.89074 8.59011 3.03103 6.86951H8.25Z" fill="#10BB87"/>
</svg>
