<svg width="25" height="24" viewBox="0 0 25 24" fill="none" xmlns="http://www.w3.org/2000/svg">
<path fill-rule="evenodd" clip-rule="evenodd" d="M6.34194 9.85617C8.12925 13.7481 11.3097 16.8422 15.2635 18.5188L15.276 18.5241L16.0398 18.8646C17.0124 19.2979 18.1557 18.9901 18.7793 18.1271L20.0536 16.3633C20.1315 16.2556 20.1114 16.1058 20.008 16.0223L17.7832 14.2275C17.6726 14.1383 17.51 14.1591 17.4254 14.2732L16.5595 15.4416C16.3492 15.7254 15.9695 15.824 15.6477 15.6784C12.6913 14.3404 10.3156 11.9647 8.97769 9.00832C8.83208 8.68656 8.93067 8.30681 9.21442 8.09653L10.3828 7.23067C10.497 7.14606 10.5177 6.98343 10.4285 6.87284L8.63348 4.6478C8.55006 4.54438 8.40031 4.52429 8.29258 4.60207L6.51928 5.88222C5.6505 6.50941 5.34454 7.66226 5.788 8.63771L6.34134 9.85487C6.34154 9.8553 6.34174 9.85574 6.34194 9.85617ZM14.6716 19.8971C10.3756 18.0735 6.92021 14.7105 4.97816 10.4808L4.97699 10.4782L4.42249 9.2585C3.68339 7.63275 4.19332 5.71134 5.6413 4.66603L7.41459 3.38587C8.16871 2.84146 9.21694 2.98207 9.80094 3.70596L11.596 5.931C12.2205 6.70517 12.0751 7.84357 11.2759 8.43581L10.6064 8.93196C11.7373 11.1264 13.5297 12.9187 15.7241 14.0497L16.2203 13.3801C16.8125 12.581 17.9509 12.4355 18.7251 13.0601L20.9498 14.8549C21.6739 15.439 21.8143 16.4877 21.2695 17.2418L19.9951 19.0055C18.9558 20.444 17.0504 20.957 15.4293 20.2347L14.6716 19.8971Z" fill="black"/>
</svg>
