<svg width="20" height="20" viewBox="0 0 20 20" fill="none" xmlns="http://www.w3.org/2000/svg">
<path fill-rule="evenodd" clip-rule="evenodd" d="M6.45964 6.25C6.45964 4.29399 8.04529 2.70833 10.0013 2.70833C11.9573 2.70833 13.543 4.29399 13.543 6.25C13.543 8.20601 11.9573 9.79166 10.0013 9.79166C8.04529 9.79166 6.45964 8.20601 6.45964 6.25ZM10.0013 3.95833C8.73565 3.95833 7.70964 4.98435 7.70964 6.25C7.70964 7.51565 8.73565 8.54167 10.0013 8.54167C11.267 8.54167 12.293 7.51565 12.293 6.25C12.293 4.98435 11.267 3.95833 10.0013 3.95833Z" fill="black"/>
<path fill-rule="evenodd" clip-rule="evenodd" d="M6.66797 12.2917C5.63244 12.2917 4.79297 13.1311 4.79297 14.1667V15.1569C4.79297 15.172 4.8039 15.1848 4.81878 15.1873C8.25107 15.7476 11.7515 15.7476 15.1838 15.1873C15.1987 15.1848 15.2096 15.172 15.2096 15.1569V14.1667C15.2096 13.1311 14.3702 12.2917 13.3346 12.2917H13.0506C13.0286 12.2917 13.0068 12.2951 12.9859 12.302L12.2646 12.5375C10.794 13.0177 9.20864 13.0177 7.73796 12.5375L7.01669 12.302C6.99582 12.2951 6.97399 12.2917 6.95203 12.2917H6.66797ZM3.54297 14.1667C3.54297 12.4408 4.94208 11.0417 6.66797 11.0417H6.95203C7.10577 11.0417 7.25855 11.066 7.4047 11.1137L8.12596 11.3492C9.34453 11.7471 10.6581 11.7471 11.8766 11.3492L12.5979 11.1137C12.7441 11.066 12.8968 11.0417 13.0506 11.0417H13.3346C15.0605 11.0417 16.4596 12.4408 16.4596 14.1667V15.1569C16.4596 15.7846 16.0047 16.3198 15.3852 16.4209C11.8196 17.0031 8.18305 17.0031 4.61736 16.4209C3.99787 16.3198 3.54297 15.7846 3.54297 15.1569V14.1667Z" fill="black"/>
</svg>
